<?xml version="1.0" encoding="utf-8"?>
<!-- Generator: Adobe Illustrator 24.1.1, SVG Export Plug-In . SVG Version: 6.00 Build 0)  -->
<svg version="1.1" id="Capa_1" xmlns:xodm="http://www.corel.com/coreldraw/odm/2003"
	 xmlns="http://www.w3.org/2000/svg" xmlns:xlink="http://www.w3.org/1999/xlink" x="0px" y="0px" viewBox="0 0 553.6 147.2"
	 style="enable-background:new 0 0 553.6 147.2;" xml:space="preserve">
<style type="text/css">
	.st0{fill-rule:evenodd;clip-rule:evenodd;fill:#FFFFFF;}
	.st1{fill-rule:evenodd;clip-rule:evenodd;fill:#243661;}
	.st2{fill-rule:evenodd;clip-rule:evenodd;fill:#84C44C;}
</style>
<circle class="st0" cx="73" cy="74.4" r="67"/>
<g id="Capa_x0020_1">
	<path class="st1" d="M521.5,21.6c-9.6,0-15.9,6.8-15.9,17c0,10.4,6.2,17.2,15.8,17c9.3-0.1,15.1-6.6,15.4-16.9
		C537,28.9,530.4,21.6,521.5,21.6L521.5,21.6z M553.6,38.7c0.1,18.3-14.1,32.2-32.3,32.3c-19,0-31.9-14.1-32.6-30.4
		c-0.9-19.9,13.9-34.3,32.5-34.3C539.6,6.4,553.7,20.5,553.6,38.7z M247.7,97.9v12.6c3.4-0.2,6.6-0.1,9.8-0.5
		c3.7-0.4,5.2-2.4,5.2-5.9c0-3.4-1.8-5.8-5.1-6.1C254.3,97.7,251.1,97.9,247.7,97.9z M269,121.2c4.2,7.2,8.3,14.4,12.8,22.1h-6.2
		c-3.1,0-6.2-0.1-9.4,0c-1.8,0.1-2.9-0.4-3.8-2.1c-2.5-4.6-5.3-9.1-7.9-13.7c-2.2-3.9-2.1-3.9-7-3.3c0,3.7,0,7.4,0,11.1
		c0,2.1,0.1,4.2-0.1,6.3c0,0.6-1,1.6-1.6,1.6c-4.1,0.1-8.3,0-12.4,0.1c-1.7,0-1.8-1-1.8-2.3c0-7,0-14,0-21.1V91.2c0-5.5,1.5-7,6.9-7
		c6.9,0,13.9-0.1,20.8,0.2c9.6,0.4,17.1,6.4,18.8,15.4c1.6,8.1-0.2,15-8.1,20.5C269.8,120.5,269.5,120.7,269,121.2L269,121.2z
		 M452.8,34.9c3.7,0,7.1,0.1,10.4,0c3-0.1,5.4-2.6,5.7-5.5c0.3-3.7-1.3-6.8-4.5-7.2c-3.8-0.4-7.7-0.1-11.6-0.1L452.8,34.9
		L452.8,34.9z M489.1,69.6c-6.4,0-12.3,0-18.3-0.1c-0.6,0-1.3-0.9-1.7-1.5c-2.9-4.9-5.8-9.9-8.7-14.8c-2.4-4.2-2.4-4.2-7.6-3.7v20.2
		h-16.3c0-1-0.1-1.9-0.1-2.9c0-17.8,0-35.6,0-53.5c0-3.9,1.9-6,5.8-6c8.3,0,16.7-0.4,24.9,0.5c12.6,1.3,20.7,12.2,18.4,24.3
		c-1.2,6.5-3.5,9.7-9.9,14.3C480,54.1,484.4,61.7,489.1,69.6L489.1,69.6z M390.5,92.7c-2.2,2.5-4.3,5.1-6.6,7.5
		c-2.3,2.4-3.8,2.6-6.5,0.5c-5.5-4.4-13.5-3.5-17.8-0.1c-2.9,2.3-4.4,5.4-5.1,8.8c-1.2,5.8-0.4,11.3,3.7,15.9
		c3.6,4.1,11,5.7,16.1,3.7c1.5-0.6,2.3-1.3,2.1-3c-0.1-1.3,0-2.6,0-4.2c-3.1,0-6-0.1-8.8,0c-1.7,0.1-2.4-0.5-2.3-2.2
		c0.1-3,0.1-6.1,0-9.1c0-1.5,0.4-2.3,2.1-2.2c7.6,0.1,15.1,0.1,22.7,0c1.5,0,1.9,0.6,1.9,1.9c0,8.1,0.1,16.2-0.2,24.3
		c0,1.4-1.8,3-3.1,4c-6.7,5.2-14.5,6.4-22.7,5.6c-11-1.1-19.5-6.3-24.5-16.2c-8.6-16.9-0.9-39.2,20.1-43.9
		c10.5-2.3,20.4-0.5,28.3,7.8C390,92,390.2,92.3,390.5,92.7L390.5,92.7z M446.1,105.3v17.1c0,12.3-8,20.9-20.2,21.8
		c-6.6,0.5-12.9-0.3-18.4-4.4c-4.5-3.4-7.5-8-7.7-13.6c-0.4-12.4-0.4-24.8-0.5-37.2c0-2.7,1.9-4.6,4.8-4.8c3.1-0.2,6.2,0,9.4-0.1
		c1.9,0,1.6,1.3,1.6,2.4c0,10.9,0,21.8,0,32.8c0,1.8,0.2,3.6,0.6,5.3c0.7,3.1,3.1,4.9,6.2,5c4.3,0.2,6.8-1.2,7.8-4.5
		c0.5-1.8,0.9-3.8,0.9-5.7c0.1-10.9,0.1-21.8,0-32.8c0-2.1,0.6-2.7,2.7-2.6c3.5,0.2,7,0.1,10.5,0c1.9-0.1,2.5,0.6,2.4,2.4
		C446.1,92.8,446.1,99.1,446.1,105.3L446.1,105.3z M208.7,84.2c4.8,0,9.6-0.1,14.3,0.1c0.4,0,1.2,1.6,1.2,2.5c0.1,12,0.1,24,0,36
		c0,1.2-0.3,2.3-0.4,3.5c-0.9,9.1-8.4,16.6-18.7,17.7c-1.5,0.2-3,0.3-4.6,0.2c-3.6,0-7.1-0.5-10.5-2c-8.3-3.6-12.2-10.3-12.5-19.1
		c-0.1-4.5-0.1-9.1-0.1-13.6c0-6.6,0.1-13.2,0.1-19.9c0-3.6,1.8-5.4,5.4-5.5c2.7-0.1,5.3,0.1,8-0.1c1.9-0.1,2.4,0.6,2.4,2.4
		c-0.1,10.8,0,21.7,0,32.5c0,1.2,0,2.5,0.1,3.7c0.5,4.5,3.1,6.9,7.5,6.9c4.4,0,7.2-2.4,7.4-7c0.3-5.4,0.4-10.7,0.4-16.1
		C208.8,99.3,208.7,91.9,208.7,84.2L208.7,84.2z M331.9,105.7c0,5.5,0,11.1,0,16.6c0,12.4-8,21.1-20.3,21.8
		c-6.6,0.4-12.9-0.3-18.4-4.4c-5.8-4.4-7.9-10.6-8-17.6c-0.1-10.6,0-21.2,0-31.8c0-4.2,2-6.1,6.2-6.1c2.3,0,4.7,0.1,7,0
		c2-0.1,2.7,0.6,2.7,2.7c-0.1,11.5-0.1,23.1,0,34.6c0,2.9,0.7,5.6,3.3,7.3c2.6,1.6,5.5,1.5,8.1,0.2c3.3-1.6,3.9-5,3.9-8.2
		c0.1-11.2,0-22.3,0.1-33.5c0-3.1,0-3.1,3-3.1c3.3,0,6.6,0.1,9.8,0c2.3-0.1,2.8,0.7,2.7,2.8C331.8,93.2,331.9,99.5,331.9,105.7
		L331.9,105.7z M195.2,45.3v9.3c1,0.1,1.9,0.1,2.9,0.1c6.8,0,13.5,0.1,20.3,0c2,0,2.6,0.6,2.5,2.6c-0.2,3.5-0.1,6.9,0,10.4
		c0,1.5-0.5,2.1-2,2c-12,0-23.9,0-35.9,0c-2.6,0-4.6-2.5-4.6-5.4c0-8.4,0-16.8,0-25.3c0-9.6,0-19.3,0-29c0-2,0.5-2.7,2.6-2.7
		c12.1,0.1,24.3,0.1,36.4,0c2.1,0,2.7,0.7,2.7,2.7c-0.1,4.1,0,8.2,0,12.5h-24.7v8.6h11.5c2.5,0,5,0.1,7.4,0c1.8-0.1,2.3,0.6,2.2,2.3
		c-0.1,3.2-0.1,6.4,0,9.7c0.1,1.7-0.6,2.3-2.3,2.3C208,45.2,201.7,45.3,195.2,45.3L195.2,45.3z M293.9,45.3v9.5h25.5v14.9
		c-12.8,0-25.3,0-37.8,0c-2.2,0-4-1.9-4.3-4.1c-0.1-0.7,0-1.3,0-2c0-17.8,0-35.6-0.1-53.5c0-2.2,0.6-2.8,2.8-2.8
		c12.1,0.1,24.3,0.1,36.4,0c1.9,0,2.7,0.5,2.6,2.5c-0.1,3.4-0.1,6.8,0,10.1c0.1,2-0.5,2.7-2.6,2.7c-6.6-0.1-13.2,0-19.8,0H294v8.5
		h4.2c5,0,10.1,0.1,15.1,0c1.7,0,2.4,0.5,2.3,2.2c-0.1,3.2-0.1,6.4,0,9.7c0.1,1.9-0.7,2.4-2.5,2.3c-5.4-0.1-10.9,0-16.3,0
		L293.9,45.3L293.9,45.3z M368.2,49.1c3.5,4.1,6.9,8,10.3,12c-4.4,5.2-9.9,8.3-16.4,9.3c-9.4,1.5-18.3,0.1-26.2-5.8
		c-7.4-5.5-11.5-12.9-12.6-22c-1.2-10,1.5-18.9,8.2-26.3c4.6-5.1,10.5-8.2,17.2-9.4c2.4-0.4,4.8-0.7,7.2-0.7h0.6
		c4.8,0,9.5,1.1,14,3.5c1.7,0.9,3.3,2.2,4.7,3.5c1.9,1.7,2,4.2,0.5,6.2c-1.1,1.4-2.3,2.8-3.5,4.1c-2.7,2.9-4.6,3.1-7.9,0.8
		c-6-4.1-14.4-3.8-19.3,1.1c-5.4,5.4-5.9,12.2-4.1,19.2c1.5,6,5.6,9.5,11.6,10.7c5,0.9,9.4-0.3,13.2-3.7
		C366.6,51,367.3,50.1,368.2,49.1L368.2,49.1z M473.7,124.3h9.4c-1.5-4-3-7.7-4.5-11.5c-0.2,0-0.4,0-0.6,0
		C476.6,116.6,475.2,120.4,473.7,124.3z M478.8,83.3c9.7,19.8,19.5,39.6,29.4,59.7c-1.2,0.1-1.9,0.2-2.7,0.2
		c-4.1,0-8.3-0.1-12.4,0.1c-1.9,0.1-2.8-0.7-3.4-2.4c-2.2-5.6-0.5-4.6-6.8-4.7c-4,0-8,0-11.9,0c-1.5,0-2.3,0.5-2.8,1.8
		c-2.5,6.4-1.1,5.1-7.7,5.2c-2.2,0-4.4,0.1-6.6,0c-3.2-0.1-4.4-2.1-2.9-5c8.3-16.8,16.6-33.5,24.8-50.3c0.8-1.6,1.5-3.1,2.2-4.7
		C478.3,83.2,478.5,83.3,478.8,83.3L478.8,83.3z M495.9,84.2c6,0,11.5-0.1,17,0.1c0.6,0,1.4,1,1.8,1.8c3.2,5.8,6.4,11.7,9.8,18
		c1.6-2.8,3-5.2,4.3-7.7c2-3.6,3.9-7.2,5.9-10.8c0.3-0.6,1.1-1.2,1.7-1.2c5.4-0.1,10.7,0,16.1,0.1c0.1,0,0.2,0.2,0.6,0.4
		c-1.1,1.9-2.1,3.8-3.2,5.7c-5.5,9.3-11.1,18.6-16.6,27.9c-0.6,0.9-0.8,2.2-0.8,3.3c-0.1,6.5-0.1,12.9,0,19.4c0,1.8-0.6,2.3-2.3,2.3
		c-3.7-0.1-7.5-0.1-11.2,0c-1.9,0.1-2.4-0.6-2.4-2.5c0.1-5.4-0.2-10.9,0.1-16.4c0.2-3.6-1-6.4-2.7-9.4c-5.9-9.6-11.6-19.2-17.4-28.8
		C496.5,85.9,496.3,85.3,495.9,84.2L495.9,84.2z M396.8,22.1c-4.7,0-9-0.1-13.2,0c-2,0.1-2.9-0.4-2.7-2.6c0.2-2,0-4,0-5.9
		c0-3.9,2-6.2,6-6.2c13.5-0.1,27.1,0,40.6-0.1c1.5,0,2,0.7,2,2.1c-0.1,3.5-0.1,7.1,0,10.6c0,1.7-0.7,2.1-2.2,2.1
		c-4.4-0.1-8.9,0-13.7,0v47.5c-4.9,0-9.5-0.1-14.1,0c-2.1,0.1-2.7-0.6-2.7-2.7c0.1-13.4,0.1-26.9,0.1-40.3L396.8,22.1L396.8,22.1z
		 M245.2,55.2h21c3.2,0,3.2,0,3.2,3.3c0,3.1-0.1,6.1,0,9.2c0,1.5-0.5,2-2,2c-11.3,0-22.6,0-33.9,0c-2.9,0-4.7-2.1-4.7-5.4
		c0-17,0-34,0-51c0-5.9,0-5.9,5.8-5.9c2.6,0,5.1,0.1,7.7,0c2.3-0.2,3,0.6,3,2.9c-0.1,11.8,0,23.6-0.1,35.4L245.2,55.2L245.2,55.2z"
		/>
	<path class="st2" d="M54.8,118.6L54.8,118.6c-1.5,0.4-2.1,2.4-1.3,3.6c0.5,0.7,1.2,1.1,1.9,1.6c1.9,1.2,4.1,2,6.2,2.8
		c0.6,0.2,1,0.7,1.1,1.3c0.6,3.1,2.8,5.7,5.5,7.1c1.6,0.8,3.5,1.3,5.3,1c2-0.2,4-0.9,5.5-2.2c1.9-1.5,3.1-3.6,3.7-5.9
		c0.1-0.6,0.6-1.2,1.2-1.3c2.1-0.6,4.1-1.5,5.9-2.7c0.6-0.4,1.3-0.8,1.8-1.4c0.5-0.5,0.7-1.3,0.5-2c-0.3-0.9-1-1.8-2-1.9
		c-0.8-0.1-1.5,0.3-2.1,0.7c-3.8,2.4-8.2,3.4-12.6,3.5c-2.9,0.1-5.7,0.1-8.6-0.2c-3.5-0.4-6.9-1.5-9.8-3.5
		C56.4,118.5,55.5,118.4,54.8,118.6L54.8,118.6z M90.1,108.4L90.1,108.4c-0.7,0.2-1.2,0.7-1.8,1c-3,1.9-6.5,3-10.1,3.5
		c-3.1,0.4-6.3,0.6-9.5,0.3c-4.4-0.4-8.8-1.8-12.5-4.2c-0.9-0.6-2.2-0.9-3.3-0.4c-0.9,0.4-1.4,1.3-1.4,2.3c0.1,1,0.8,1.9,1.6,2.5
		c1.8,1.2,3.7,2.3,5.7,3c4.2,1.6,8.7,2.2,13.1,2.1c1.9-0.1,3.7,0.1,5.6-0.1c5.3-0.5,10.5-2.3,14.8-5.3c0.6-0.5,1-1.1,1.1-1.9
		c0.1-1-0.3-2-1.1-2.5C91.7,108.4,90.9,108.2,90.1,108.4L90.1,108.4z M97.5,18L97.5,18c-3.3,0.7-6.7,1.6-9.8,3.1
		c-3.9,1.8-7.6,4.2-10.9,7c-3.4,3-6.4,6.4-8.8,10.2c-0.3,0.5-0.7,1-1.3,1.1c-0.5,0-1-0.3-1.4-0.6c-1.2-0.9-2.5-1.7-3.8-2.3
		c-3.2-1.5-6.7-2-10.1-2.1c-0.9,0-1.8,0.1-2.8,0.1c-1.7,0.1-3.5,0.2-5.1,0.9c-0.7,0.3-1.2,0.9-1.3,1.7C41.3,43.4,42,49.7,44,55.6
		c0.8,2.4,1.9,4.8,3,7.1c4.1,8.4,9.7,16,16.2,22.7c1.2,1.2,2.4,2.3,3.3,3.7c1.6,2.3,2.5,5.1,2.6,7.9c0,1.7,0,3.4,0.3,5
		c0,0.4,0.1,0.9-0.2,1.2c-0.4,0.3-0.9,0.2-1.3,0.1c-4.1-0.8-8.3-2-11.8-4.5c-0.8-0.6-1.6-1.1-2.6-1.1c-0.9,0.1-1.6,0.7-2,1.5
		c-0.5,0.7-0.6,1.5-0.4,2.3c0.3,1,1.1,1.7,1.9,2.2c2.2,1.7,4.7,3,7.4,3.9c4.4,1.5,9,1.9,13.6,1.8c2.4-0.1,4.8-0.2,7.2-0.7
		c3.9-0.8,7.6-2.4,10.8-4.6c0.7-0.5,1.4-1,1.9-1.7c0.6-0.8,0.5-1.9,0.1-2.8c-0.3-0.9-1.1-1.6-2-1.8c-0.9-0.2-1.7,0.3-2.4,0.8
		c-3.5,2.7-7.9,4.2-12.2,4.7c-0.4,0-0.9,0-1.3-0.3c-0.4-0.3-0.4-0.7-0.5-1.1c-0.3-1.3-0.4-2.7-0.5-4c-0.1-1.2-0.1-2.4,0-3.5
		c0-0.3,0.1-0.6,0.3-0.8c0.5-0.5,0.9-1.1,1.4-1.6c3-3.6,6.2-7.1,9-10.9c3.2-4.1,6.1-8.3,8.8-12.8c2-3.4,3.9-7,5.2-10.7
		c1.8-5,2.9-10.2,3.4-15.5c0.6-6.6,0-13.2-1.1-19.7c-0.2-1.3-0.5-2.6-1.4-3.5C99.7,18,98.5,17.8,97.5,18L97.5,18z M94.9,24.7
		c0.3-0.1,0.7-0.2,1.1,0c0.4,0.2,0.5,0.7,0.5,1.1c0.6,3.9,0.9,7.8,0.8,11.7c-0.2,5.4-0.9,10.8-2.6,16c-1.2,3.9-3,7.6-5.1,11.1
		c-3.9,6.3-8.4,12.2-13.2,18c-0.5,0.5-1,1-1.6,1.5c0.1-5.4,0.9-10.8,2.1-16.1c1.2-5.5,3-10.9,5.6-15.9c1.6-3.2,3.6-6.2,5.5-9.2
		c0.6-0.9,1.1-2,1-3.1c-0.2-1.7-2.3-2.8-3.8-2.1c-0.9,0.4-1.6,1.2-2.1,2c-4.3,5.6-7.3,12-9.7,18.6c-2,5.7-3.1,11.6-4.1,17.5
		c-0.1,0.5-0.1,1-0.4,1.3c-1.6-5.2-2.6-10.6-2.3-16.1c0.3-5.7,1.9-11.3,4.6-16.3c2.9-5.4,7.2-9.9,12-13.6c1.5-1.1,3-2.2,4.6-3.1
		C89.9,26.5,92.4,25.6,94.9,24.7L94.9,24.7z M49.4,40.5c3.2-0.2,6.4,0.2,9.4,1.5c1.3,0.6,2.6,1.3,3.7,2.2c0.4,0.3,0.9,0.7,1,1.3
		c0.1,0.6,0,1.1-0.3,1.6c-0.6,1.5-1.1,3-1.7,4.5c-1-0.6-1.4-1.6-2-2.5c-1-1.2-1.9-2.5-3.4-3.1c-0.8-0.4-1.8-0.3-2.5,0.2
		c-0.9,0.7-1.5,1.7-1.5,2.8c0,0.7,0.4,1.3,0.9,1.8c2.9,2.8,4.7,6.5,6.1,10.3c0.4,1.1,0.8,2.3,1.2,3.5c0.7,2.4,0.6,4.9,0.9,7.3
		c0,0.2,0.1,0.5-0.1,0.8c-0.2,0.2-0.7,0.3-0.9,0c-2.3-2.8-4.4-5.9-6.2-9c-2.4-4.1-4.3-8.4-5.4-13c-0.3-1.2-0.6-2.4-0.7-3.6
		c-0.2-1.7-0.2-3.4-0.3-5.1c0-0.4,0-0.9,0.4-1.2C48.4,40.5,48.9,40.6,49.4,40.5L49.4,40.5z M68.3,127.8c0.8-0.3,1.6,0.1,2.4,0.1
		c1.9-0.1,3.9,0,5.8-0.1c0.5,0,0.8,0.7,0.4,1.1c-0.9,1-2,2.1-3.4,2.3c-0.9,0.1-1.8,0.2-2.6-0.2c-0.6-0.3-1.2-0.6-1.8-1
		c-0.4-0.3-0.9-0.7-1-1.2C68,128.4,68,128,68.3,127.8z M73.6,0c40.6,0,73.6,32.9,73.6,73.6s-32.9,73.6-73.6,73.6S0,114.2,0,73.6
		S32.9,0,73.6,0z"/>
</g>
</svg>
